<svg xmlns="http://www.w3.org/2000/svg" width="720" height="720" viewBox="0 0 720 720">
  <defs><linearGradient id="bg" x1="0" y1="0" x2="1" y2="1"><stop offset="0" stop-color="#F2F8F5"/><stop offset="1" stop-color="#FFF5E8"/></linearGradient><filter id="shadow" x="-20%" y="-20%" width="140%" height="150%"><feDropShadow dx="0" dy="8" stdDeviation="10" flood-color="#183331" flood-opacity=".14"/></filter></defs>
  <rect width="720" height="720" rx="42" fill="url(#bg)"/>
  <rect x="28" y="28" width="664" height="664" rx="34" fill="#FFFFFF" stroke="#DCE8E2" stroke-width="3" filter="url(#shadow)"/>
  <path d="M62 29h596q34 0 34 34v100H28V63q0-34 34-34z" fill="#073B32"/>
  <circle cx="91" cy="83" r="27" fill="#F28C28"/><path d="M79 83h24M91 71v24" stroke="#FFFFFF" stroke-width="7" stroke-linecap="round"/>
  <text x="133" y="79" font-family="Arial, sans-serif" font-size="27" font-weight="700" fill="#FFFFFF">QUETZALMART</text>
  <text x="133" y="111" font-family="Arial, sans-serif" font-size="17" fill="#B8D8CB">MATERIAL OPERATIVO · Equipo de tienda y tecnología</text>
  <text x="648" y="84" text-anchor="end" font-family="Arial, sans-serif" font-size="20" font-weight="700" fill="#F28C28">QMI-040</text>
  <circle cx="360" cy="322" r="158" fill="#F2F7F4"/>
  <circle cx="360" cy="322" r="128" fill="#FFFFFF" stroke="#E6EFEA" stroke-width="3"/>
  <g transform="translate(180 175) scale(1.0)"><rect x="55" y="45" width="250" height="165" rx="18" fill="#6C5B7B"/><rect x="76" y="66" width="208" height="123" rx="8" fill="#F4F7F5"/><path d="M180 210v48M125 258h110" stroke="#24343B" stroke-width="16"/><path d="M105 155l45-42 38 29 43-54" fill="none" stroke="#F28C28" stroke-width="11"/></g>
  <text x="360" y="520" text-anchor="middle" font-family="Arial, sans-serif" font-size="27" font-weight="700" fill="#1D3334">Monitor Full HD</text><text x="360" y="558" text-anchor="middle" font-family="Arial, sans-serif" font-size="27" font-weight="700" fill="#1D3334">administrativo</text>
  <text x="360" y="606" text-anchor="middle" font-family="Arial, sans-serif" font-size="17" fill="#59716A">Código interno: QMI-040 · QuetzalMart</text>
  <rect x="178" y="632" width="364" height="40" rx="20" fill="#FFF1E0" stroke="#F3D1A7"/>
  <text x="360" y="658" text-anchor="middle" font-family="Arial, sans-serif" font-size="16" font-weight="700" fill="#9B4F00">USO INTERNO · NO VENDIBLE</text>
</svg>