<svg xmlns="http://www.w3.org/2000/svg" viewBox="0 0 1000 470" role="img" aria-labelledby="title desc">
  <title id="title">Eventos registrados por campaña de sesión, 30 de septiembre de 2026</title>
  <desc id="desc">Gráfico horizontal de eventos. Not set aporta 131, beneficios_temporada_2026 aporta 46, direct 29, validacion_ga4_sep2026 15, cross-network 8, ga4_demostracion_v2 4, y dos campañas aportan 2 eventos cada una. Total: 237 eventos.</desc>
  <style>
    text{font-family:Arial,Helvetica,sans-serif;fill:#26352f}.title{font-size:23px;font-weight:700}.sub{font-size:14px;fill:#596962}.label{font-size:14px}.tick{font-size:12px;fill:#596962}.value{font-size:14px;font-weight:700}.grid{stroke:#dce5df;stroke-width:1}.axis{stroke:#82948a;stroke-width:1.2}.named{fill:#23845c}.unset{fill:#e47f24}.channel{fill:#98a6a0}
  </style>
  <text class="title" x="28" y="34">Eventos registrados por campaña de sesión</text>
  <text class="sub" x="28" y="59">GA4 · 30 septiembre 2026 · total del informe: 237 eventos</text>
  <rect x="28" y="74" width="12" height="12" rx="2" class="named"/><text class="sub" x="46" y="85">Campaña identificada</text>
  <rect x="210" y="74" width="12" height="12" rx="2" class="unset"/><text class="sub" x="228" y="85">(not set)</text>
  <rect x="315" y="74" width="12" height="12" rx="2" class="channel"/><text class="sub" x="333" y="85">Canal / fuente</text>

  <line class="grid" x1="365" y1="104" x2="365" y2="414"/><line class="grid" x1="485" y1="104" x2="485" y2="414"/><line class="grid" x1="605" y1="104" x2="605" y2="414"/><line class="grid" x1="725" y1="104" x2="725" y2="414"/><line class="grid" x1="845" y1="104" x2="845" y2="414"/>
  <text class="label" x="350" y="130" text-anchor="end">validacion_ga4_sep2026</text><rect class="named" x="365" y="115" width="51.43" height="20" rx="3"/><text class="value" x="425" y="130">15</text>
  <text class="label" x="350" y="167" text-anchor="end">ga4_demostracion_v2</text><rect class="named" x="365" y="152" width="13.72" height="20" rx="3"/><text class="value" x="388" y="167">4</text>
  <text class="label" x="350" y="204" text-anchor="end">ga4_demo_utm_2026</text><rect class="named" x="365" y="189" width="6.86" height="20" rx="3"/><text class="value" x="379" y="204">2</text>
  <text class="label" x="350" y="241" text-anchor="end">campana_validacion_20260930</text><rect class="named" x="365" y="226" width="6.86" height="20" rx="3"/><text class="value" x="379" y="241">2</text>
  <text class="label" x="350" y="278" text-anchor="end">beneficios_temporada_2026</text><rect class="named" x="365" y="263" width="157.72" height="20" rx="3"/><text class="value" x="530" y="278">46</text>
  <text class="label" x="350" y="315" text-anchor="end">(not set)</text><rect class="unset" x="365" y="300" width="449.14" height="20" rx="3"/><text class="value" x="822" y="315">131</text>
  <text class="label" x="350" y="352" text-anchor="end">(direct)</text><rect class="channel" x="365" y="337" width="99.43" height="20" rx="3"/><text class="value" x="472" y="352">29</text>
  <text class="label" x="350" y="389" text-anchor="end">(cross-network)</text><rect class="channel" x="365" y="374" width="27.43" height="20" rx="3"/><text class="value" x="400" y="389">8</text>

  <line class="axis" x1="365" y1="414" x2="845" y2="414"/>
  <text class="tick" x="365" y="434" text-anchor="middle">0</text><text class="tick" x="485" y="434" text-anchor="middle">35</text><text class="tick" x="605" y="434" text-anchor="middle">70</text><text class="tick" x="725" y="434" text-anchor="middle">105</text><text class="tick" x="845" y="434" text-anchor="middle">140 eventos</text>
  <text class="sub" x="28" y="458">Más de la mitad de los eventos todavía carece de atribución de campaña.</text>
</svg>
